HIERARCHY
ROOT mixamorig:Hips
{
	OFFSET -0.000007 99.791939 0.000048
	CHANNELS 6 Xposition Yposition Zposition Xrotation Yrotation Zrotation
	JOINT mixamorig:Spine
	{
		OFFSET -0.000008 9.923462 -1.227335
		CHANNELS 3 Xrotation Yrotation Zrotation
		JOINT mixamorig:Spine1
		{
			OFFSET -0.001162 11.645439 -1.422341
			CHANNELS 3 Xrotation Yrotation Zrotation
			JOINT mixamorig:Spine2
			{
				OFFSET -0.001082 13.360199 -1.626459
				CHANNELS 3 Xrotation Yrotation Zrotation
				JOINT mixamorig:Neck
				{
					OFFSET -0.001294 15.032486 0.792904
					CHANNELS 3 Xrotation Yrotation Zrotation
					JOINT mixamorig:Head
					{
						OFFSET -0.000902 10.321838 3.142429
						CHANNELS 3 Xrotation Yrotation Zrotation
						JOINT mixamorig:HeadTop_End
						{
							OFFSET -0.001464 18.474670 6.636400
							CHANNELS 3 Xrotation Yrotation Zrotation
							End Site
							{
								OFFSET -0.001724 19.630463 0.000000
							}
						}
					}
				}
				JOINT mixamorig:LeftShoulder
				{
					OFFSET 6.105025 9.110947 0.705547
					CHANNELS 3 Xrotation Yrotation Zrotation
					JOINT mixamorig:LeftArm
					{
						OFFSET 12.655060 -0.264816 -2.600928
						CHANNELS 3 Xrotation Yrotation Zrotation
						JOINT mixamorig:LeftForeArm
						{
							OFFSET 27.404680 0.002457 -0.000007
							CHANNELS 3 Xrotation Yrotation Zrotation
							JOINT mixamorig:LeftHand
							{
								OFFSET 27.614456 0.002457 0.000007
								CHANNELS 3 Xrotation Yrotation Zrotation
								JOINT mixamorig:LeftHandThumb1
								{
									OFFSET 3.789009 -2.166824 3.002973
									CHANNELS 3 Xrotation Yrotation Zrotation
									JOINT mixamorig:LeftHandThumb2
									{
										OFFSET 3.675636 -2.121704 2.122010
										CHANNELS 3 Xrotation Yrotation Zrotation
										JOINT mixamorig:LeftHandThumb3
										{
											OFFSET 3.394531 -1.959473 1.959746
											CHANNELS 3 Xrotation Yrotation Zrotation
											JOINT mixamorig:LeftHandThumb4
											{
												OFFSET 2.679504 -1.546753 1.546951
												CHANNELS 3 Xrotation Yrotation Zrotation
												End Site
												{
													OFFSET 2.400604 -1.530380 1.964751
												}
											}
										}
									}
								}
								JOINT mixamorig:LeftHandIndex1
								{
									OFFSET 12.266647 -0.230743 2.822040
									CHANNELS 3 Xrotation Yrotation Zrotation
									JOINT mixamorig:LeftHandIndex2
									{
										OFFSET 3.891968 0.000336 0.000037
										CHANNELS 3 Xrotation Yrotation Zrotation
										JOINT mixamorig:LeftHandIndex3
										{
											OFFSET 3.415161 0.000305 -0.000010
											CHANNELS 3 Xrotation Yrotation Zrotation
											JOINT mixamorig:LeftHandIndex4
											{
												OFFSET 3.077995 0.000275 -0.000009
												CHANNELS 3 Xrotation Yrotation Zrotation
												End Site
												{
													OFFSET 3.077988 0.000259 0.000131
												}
											}
										}
									}
								}
								JOINT mixamorig:LeftHandMiddle1
								{
									OFFSET 12.775536 0.001129 0.000014
									CHANNELS 3 Xrotation Yrotation Zrotation
									JOINT mixamorig:LeftHandMiddle2
									{
										OFFSET 3.613968 0.000320 0.000000
										CHANNELS 3 Xrotation Yrotation Zrotation
										JOINT mixamorig:LeftHandMiddle3
										{
											OFFSET 3.459763 0.000305 -0.000028
											CHANNELS 3 Xrotation Yrotation Zrotation
											JOINT mixamorig:LeftHandMiddle4
											{
												OFFSET 3.680191 0.000320 0.000031
												CHANNELS 3 Xrotation Yrotation Zrotation
												End Site
												{
													OFFSET 3.680191 0.000351 -0.004814
												}
											}
										}
									}
								}
								JOINT mixamorig:LeftHandRing1
								{
									OFFSET 12.147018 0.011063 -2.216636
									CHANNELS 3 Xrotation Yrotation Zrotation
									JOINT mixamorig:LeftHandRing2
									{
										OFFSET 3.601181 0.000320 0.000033
										CHANNELS 3 Xrotation Yrotation Zrotation
										JOINT mixamorig:LeftHandRing3
										{
											OFFSET 3.307320 0.000305 -0.000023
											CHANNELS 3 Xrotation Yrotation Zrotation
											JOINT mixamorig:LeftHandRing4
											{
												OFFSET 3.660118 0.000320 0.000000
												CHANNELS 3 Xrotation Yrotation Zrotation
												End Site
												{
													OFFSET 3.660103 0.000229 0.005616
												}
											}
										}
									}
								}
								JOINT mixamorig:LeftHandPinky1
								{
									OFFSET 10.908218 -0.225174 -4.725837
									CHANNELS 3 Xrotation Yrotation Zrotation
									JOINT mixamorig:LeftHandPinky2
									{
										OFFSET 4.136658 0.000351 0.001166
										CHANNELS 3 Xrotation Yrotation Zrotation
										JOINT mixamorig:LeftHandPinky3
										{
											OFFSET 2.594826 0.000244 -0.001180
											CHANNELS 3 Xrotation Yrotation Zrotation
											JOINT mixamorig:LeftHandPinky4
											{
												OFFSET 2.923874 0.000244 0.000018
												CHANNELS 3 Xrotation Yrotation Zrotation
												End Site
												{
													OFFSET 2.923851 0.000275 -0.003346
												}
											}
										}
									}
								}
							}
						}
					}
				}
				JOINT mixamorig:RightShoulder
				{
					OFFSET -6.106495 9.109970 0.705565
					CHANNELS 3 Xrotation Yrotation Zrotation
					JOINT mixamorig:RightArm
					{
						OFFSET -12.655020 -0.267136 -2.600890
						CHANNELS 3 Xrotation Yrotation Zrotation
						JOINT mixamorig:RightForeArm
						{
							OFFSET -27.404675 -0.002365 0.000019
							CHANNELS 3 Xrotation Yrotation Zrotation
							JOINT mixamorig:RightHand
							{
								OFFSET -27.614464 -0.002396 0.000031
								CHANNELS 3 Xrotation Yrotation Zrotation
								JOINT mixamorig:RightHandThumb1
								{
									OFFSET -3.788620 -2.167480 3.002977
									CHANNELS 3 Xrotation Yrotation Zrotation
									JOINT mixamorig:RightHandThumb2
									{
										OFFSET -3.675247 -2.122314 2.122009
										CHANNELS 3 Xrotation Yrotation Zrotation
										JOINT mixamorig:RightHandThumb3
										{
											OFFSET -3.394188 -1.960129 1.959755
											CHANNELS 3 Xrotation Yrotation Zrotation
											JOINT mixamorig:RightHandThumb4
											{
												OFFSET -2.679230 -1.547195 1.546953
												CHANNELS 3 Xrotation Yrotation Zrotation
												End Site
												{
													OFFSET -2.398781 -1.531693 1.965949
												}
											}
										}
									}
								}
								JOINT mixamorig:RightHandIndex1
								{
									OFFSET -12.266594 -0.232895 2.822051
									CHANNELS 3 Xrotation Yrotation Zrotation
									JOINT mixamorig:RightHandIndex2
									{
										OFFSET -3.891968 -0.000336 0.000040
										CHANNELS 3 Xrotation Yrotation Zrotation
										JOINT mixamorig:RightHandIndex3
										{
											OFFSET -3.415161 -0.000305 -0.000006
											CHANNELS 3 Xrotation Yrotation Zrotation
											JOINT mixamorig:RightHandIndex4
											{
												OFFSET -3.077988 -0.000275 0.000006
												CHANNELS 3 Xrotation Yrotation Zrotation
												End Site
												{
													OFFSET -3.077980 0.000229 -0.008454
												}
											}
										}
									}
								}
								JOINT mixamorig:RightHandMiddle1
								{
									OFFSET -12.775528 -0.001114 0.000025
									CHANNELS 3 Xrotation Yrotation Zrotation
									JOINT mixamorig:RightHandMiddle2
									{
										OFFSET -3.613968 -0.000320 0.000005
										CHANNELS 3 Xrotation Yrotation Zrotation
										JOINT mixamorig:RightHandMiddle3
										{
											OFFSET -3.459763 -0.000305 -0.000025
											CHANNELS 3 Xrotation Yrotation Zrotation
											JOINT mixamorig:RightHandMiddle4
											{
												OFFSET -3.680191 -0.000320 0.000034
												CHANNELS 3 Xrotation Yrotation Zrotation
												End Site
												{
													OFFSET -3.680168 -0.000031 0.012581
												}
											}
										}
									}
								}
								JOINT mixamorig:RightHandRing1
								{
									OFFSET -12.147003 0.008942 -2.216624
									CHANNELS 3 Xrotation Yrotation Zrotation
									JOINT mixamorig:RightHandRing2
									{
										OFFSET -3.601196 -0.000320 0.000037
										CHANNELS 3 Xrotation Yrotation Zrotation
										JOINT mixamorig:RightHandRing3
										{
											OFFSET -3.307312 -0.000290 -0.000019
											CHANNELS 3 Xrotation Yrotation Zrotation
											JOINT mixamorig:RightHandRing4
											{
												OFFSET -3.660118 -0.000320 0.000002
												CHANNELS 3 Xrotation Yrotation Zrotation
												End Site
												{
													OFFSET -3.660110 0.000107 0.002180
												}
											}
										}
									}
								}
								JOINT mixamorig:RightHandPinky1
								{
									OFFSET -10.908173 -0.227081 -4.725826
									CHANNELS 3 Xrotation Yrotation Zrotation
									JOINT mixamorig:RightHandPinky2
									{
										OFFSET -4.136642 -0.000366 0.000029
										CHANNELS 3 Xrotation Yrotation Zrotation
										JOINT mixamorig:RightHandPinky3
										{
											OFFSET -2.594841 -0.000229 -0.000036
											CHANNELS 3 Xrotation Yrotation Zrotation
											JOINT mixamorig:RightHandPinky4
											{
												OFFSET -2.923874 -0.000259 0.000021
												CHANNELS 3 Xrotation Yrotation Zrotation
												End Site
												{
													OFFSET -2.923820 0.000336 -0.012876
												}
											}
										}
									}
								}
							}
						}
					}
				}
			}
		}
	}
	JOINT mixamorig:LeftUpLeg
	{
		OFFSET 9.124458 -6.656387 -0.055378
		CHANNELS 3 Xrotation Yrotation Zrotation
		JOINT mixamorig:LeftLeg
		{
			OFFSET 0.244681 -40.595421 -0.515619
			CHANNELS 3 Xrotation Yrotation Zrotation
			JOINT mixamorig:LeftFoot
			{
				OFFSET -0.244669 -42.047928 -2.059156
				CHANNELS 3 Xrotation Yrotation Zrotation
				JOINT mixamorig:LeftToeBase
				{
					OFFSET 0.373535 -7.208548 13.966561
					CHANNELS 3 Xrotation Yrotation Zrotation
					JOINT mixamorig:LeftToe_End
					{
						OFFSET -0.142059 -0.175224 9.997455
						CHANNELS 3 Xrotation Yrotation Zrotation
						End Site
						{
							OFFSET -0.142060 -0.175223 9.997459
						}
					}
				}
			}
		}
	}
	JOINT mixamorig:RightUpLeg
	{
		OFFSET -9.124448 -6.656403 -0.055378
		CHANNELS 3 Xrotation Yrotation Zrotation
		JOINT mixamorig:RightLeg
		{
			OFFSET -0.244680 -40.595459 -0.514290
			CHANNELS 3 Xrotation Yrotation Zrotation
			JOINT mixamorig:RightFoot
			{
				OFFSET 0.244670 -42.047859 -2.060535
				CHANNELS 3 Xrotation Yrotation Zrotation
				JOINT mixamorig:RightToeBase
				{
					OFFSET -0.373535 -7.208539 13.966558
					CHANNELS 3 Xrotation Yrotation Zrotation
					JOINT mixamorig:RightToe_End
					{
						OFFSET 0.141798 -0.175009 9.997463
						CHANNELS 3 Xrotation Yrotation Zrotation
						End Site
						{
							OFFSET 0.141798 -0.175009 9.997467
						}
					}
				}
			}
		}
	}
}
MOTION
Frames: 4
Frame Time: 0.033333
5.287371 91.530952 -24.414309 -194.809262 -120.563672 169.752426 4.015023 16.090015 9.820398 0.952328 2.176898 -8.904799 1.254328 2.099892 -8.891249 -0.354411 -8.236330 -7.031445 9.856234 -50.944462 12.185186 0.000001 -0.000000 0.000000 -0.077943 3.573734 1.035636 14.559443 -6.299710 -32.497777 -0.057323 -95.071370 -0.062680 37.569029 19.740872 49.565300 -6.161620 13.889847 24.111143 4.531095 15.167343 1.289379 -0.192120 5.775072 2.952673 0.000006 0.000002 0.000003 0.715986 -3.061557 26.313446 0.000008 -0.000690 -0.000021 0.008146 0.336399 -2.788706 -0.000002 -0.000002 0.000001 0.383708 -2.269946 19.175631 0.007735 0.327599 -2.715676 0.053224 0.856908 -7.119410 0.000003 0.000001 -0.000001 0.114572 -1.252860 10.444960 0.055861 0.877189 -7.296590 0.144034 1.404832 -11.724725 -0.000001 -0.000000 0.000000 -0.254494 3.639401 4.019633 0.121236 -2.751252 -11.727984 0.241637 1.838201 -15.196191 -0.000001 -0.000000 -0.000003 0.802816 2.875283 -6.708789 -40.962810 -11.464361 17.323506 -0.004165 40.022419 0.001528 -7.567698 -0.309920 -56.310658 -1.484279 2.472706 -24.137506 5.070843 -13.380134 -0.562140 -0.345199 -10.448689 -3.182344 0.000001 0.000001 0.000001 0.573037 2.769500 -23.390960 0.003157 -0.208611 1.716011 0.142358 -1.401887 11.584528 -0.000001 0.000003 0.000000 0.224377 1.756166 -14.571444 0.039349 -0.739515 6.079996 0.256521 -1.874179 15.575599 0.000001 -0.000000 0.000001 0.014901 0.456371 -3.752615 0.153113 -1.452942 12.020367 0.435033 -2.424989 20.334627 -0.000004 -0.000002 -0.000006 0.025923 -0.600645 4.931583 0.298108 -2.016932 16.806792 0.607785 -2.848003 24.082649 0.000002 0.000001 -0.000001 -3.551641 -3.134549 15.706916 26.611716 -9.719430 3.760558 -21.464450 -8.639881 -19.584502 -1.457764 -0.000033 -0.000011 0.000000 0.000000 0.000000 -11.121917 -3.374054 -19.548432 44.312543 -10.311991 3.568366 -19.343693 -9.136588 15.980298 -1.235723 -0.000020 0.000002 -0.000000 -0.000000 -0.000000 
3.238652 90.823647 -26.237080 -194.575888 -122.381895 168.294645 3.806877 14.744886 9.068067 0.833523 1.998493 -8.624574 1.100250 1.928495 -8.613394 0.132959 -8.309898 -6.276070 13.158905 -50.392401 16.139395 0.000000 -0.000000 0.000000 -0.019280 3.933229 -0.695349 7.690287 -0.314894 -36.542086 -0.021842 -103.115270 -0.027527 35.015545 23.541497 41.877324 -5.815553 12.877822 23.873456 4.488938 14.632073 1.251308 -0.215924 5.508047 2.927146 -0.000001 -0.000001 0.000006 0.911658 -3.428346 29.768717 0.000006 -0.000695 -0.000030 0.004228 0.242639 -2.011053 0.000000 -0.000002 0.000000 0.559806 -2.723519 23.215413 0.005574 0.278123 -2.305107 0.044156 0.780741 -6.483786 0.000001 0.000000 0.000001 0.243256 -1.816909 15.243804 0.037742 0.721520 -5.997677 0.141344 1.391811 -11.614466 0.000001 -0.000004 0.000003 -0.567328 2.943150 9.465594 0.086252 -2.935654 -10.174435 0.240813 1.835188 -15.170311 -0.000001 -0.000001 -0.000002 0.734758 2.285505 -4.529424 -40.526200 -14.241025 18.659623 -0.004999 45.106095 0.002081 -5.895038 -0.759045 -54.759143 -1.424527 2.655525 -24.110453 5.062230 -13.283564 -0.555628 -0.354512 -10.330949 -3.171067 0.000002 0.000001 0.000001 0.659456 2.961090 -25.119588 -0.000014 0.000479 0.000069 0.122373 -1.300582 10.736842 -0.000001 0.000002 0.000002 0.281871 1.964064 -16.343191 0.021265 -0.543864 4.467366 0.222709 -1.748450 14.506236 -0.000002 -0.000006 -0.000002 0.033145 0.679995 -5.593862 0.123506 -1.306266 10.791662 0.373106 -2.250972 18.816685 0.000002 0.000001 -0.000002 0.009766 -0.368388 3.020860 0.267314 -1.912196 15.910067 0.517152 -2.636185 22.187921 0.000001 0.000000 0.000001 -6.584674 3.240937 19.868298 29.836298 -10.059941 4.996106 -19.897547 -4.297302 -21.019431 -1.110441 -0.000002 -0.000004 0.000000 -0.000002 0.000000 -10.537327 -4.397936 -16.779118 47.071632 -10.622193 5.102468 -22.410160 -9.882268 14.300196 -2.676252 -0.000005 0.000021 0.000000 -0.000000 -0.000000 
1.435294 90.033356 -27.822987 -196.192375 -123.423977 165.432782 4.970283 13.065994 7.631773 0.464889 1.801680 -7.689659 0.676087 1.730051 -7.691929 0.520448 -7.968792 -5.566806 12.586822 -48.031167 17.629324 -0.000001 0.000001 -0.000000 0.230337 2.838085 -2.679712 3.685168 2.590547 -41.120567 -0.016168 -107.511692 -0.022052 30.680622 24.422328 36.820010 -5.555041 12.103907 23.696759 4.456538 14.223188 1.222002 -0.234172 5.304085 2.907549 0.000003 -0.000000 -0.000001 0.922301 -3.446847 29.945967 0.000007 -0.000696 -0.000024 0.000828 0.107434 -0.890229 0.000004 0.000001 0.000001 0.646301 -2.916699 24.973163 0.003148 0.209366 -1.735236 0.031389 0.658714 -5.466947 -0.000001 -0.000002 0.000003 0.375603 -2.246598 18.974535 0.018906 0.511096 -4.246978 0.129959 1.335171 -11.135377 -0.000000 0.000001 0.000001 -0.808475 2.234227 14.802133 0.044631 -3.202962 -7.935054 0.228995 1.790978 -14.790619 -0.000001 0.000001 -0.000002 0.681480 1.594890 -1.378488 -42.371126 -15.983259 20.122758 -0.006569 52.791195 0.003261 -3.043614 -0.458402 -53.222924 -1.301958 3.031254 -24.055504 5.044509 -13.085152 -0.542180 -0.373790 -10.089064 -3.147802 0.000001 0.000002 0.000002 0.650936 2.942864 -24.954147 -0.000014 0.000481 0.000069 0.095222 -1.148474 9.468369 0.000000 -0.000002 0.000001 0.314356 2.071607 -17.266204 0.016992 -0.486253 3.993326 0.193789 -1.632672 13.526244 0.000000 -0.000002 0.000001 0.065649 0.955808 -7.873419 0.110017 -1.233348 10.182858 0.335736 -2.138281 17.841166 -0.000001 0.000003 -0.000000 0.000148 0.044237 -0.366375 0.245519 -1.834003 15.243295 0.472060 -2.522957 21.185944 0.000001 -0.000001 0.000000 -10.003767 9.743681 23.896708 33.757998 -10.247383 7.389355 -19.072490 -2.174735 -21.941913 -0.373767 0.000012 0.000004 0.000000 0.000005 0.000000 -9.534125 -3.641406 -13.984586 50.485616 -10.681515 6.642795 -24.420220 -10.821479 13.065636 -3.895908 -0.000016 0.000033 0.000000 0.000000 -0.000000 
-0.011207 89.230698 -29.163681 -199.676742 -124.127282 161.212368 7.318905 10.973865 6.230682 0.567759 1.542526 -6.361280 0.716022 1.455792 -6.368427 -0.238268 -7.163319 -4.882576 8.507820 -43.436759 16.329995 0.000000 -0.000000 -0.000000 0.592713 0.239831 -5.121045 -0.238172 0.760965 -42.689444 -0.014297 -109.613799 -0.020286 27.519744 24.338735 35.100953 -5.480116 11.879420 23.646274 4.447127 14.104739 1.213490 -0.239470 5.244966 2.901875 0.000005 0.000004 0.000004 0.773152 -3.174345 27.364144 0.000017 -0.000686 -0.000038 0.000223 -0.056721 0.469968 -0.000001 0.000001 -0.000000 0.610312 -2.838197 24.255969 0.001155 0.127791 -1.058992 0.018043 0.499616 -4.143632 0.000002 0.000002 0.000002 0.440391 -2.426672 20.562901 0.006737 0.305129 -2.537049 0.105128 1.202083 -10.013096 -0.000002 -0.000003 0.000002 -0.928678 1.765592 18.246857 0.008247 -3.529211 -5.216792 0.205658 1.700157 -14.012967 0.000001 -0.000001 0.000002 0.619328 0.640163 1.137848 -45.208660 -16.740141 22.379057 -0.008925 60.842581 0.005237 -0.491456 0.156184 -51.685302 -1.188095 3.381302 -24.005016 5.027997 -12.900373 -0.529597 -0.391789 -9.863750 -3.126116 -0.000001 0.000002 0.000002 0.601351 2.833982 -23.970137 -0.000001 0.000487 0.000050 0.069598 -0.982680 8.091177 -0.000001 0.000000 0.000001 0.346794 2.173179 -18.142185 0.013663 -0.435896 3.579191 0.166349 -1.514164 12.527294 -0.000002 -0.000003 0.000001 0.129484 1.338896 -11.061796 0.094333 -1.142561 9.426519 0.311087 -2.060251 17.168934 0.000003 -0.000003 0.000005 0.031317 0.661150 -5.436954 0.215884 -1.721541 14.288020 0.452477 -2.471917 20.736719 0.000001 -0.000001 -0.000002 -12.050191 14.215276 27.810638 36.790380 -9.989180 9.484946 -19.002030 -2.314703 -22.628654 -0.287263 0.000005 -0.000006 0.000000 0.000000 0.000000 -7.541465 -2.816339 -11.465350 53.042679 -10.671125 7.850008 -26.480954 -11.399786 11.878435 -4.316604 -0.000040 0.000044 0.000000 0.000000 -0.000000 
